<svg width="12" height="11" viewBox="0 0 12 11" fill="none" xmlns="http://www.w3.org/2000/svg">
<path d="M6.89126 5.24731C6.64725 5.6929 6.43311 6.04546 7.01626 6.24731C7.19782 6.31016 7.79612 6.50733 7.9607 6.31676C8.16202 6.08365 8.0435 5.16919 7.9607 4.90009C7.80365 4.38967 7.1455 3.94634 6.63431 3.8862C5.26694 3.72534 4.6085 4.04382 4.79403 5.5112C4.86069 6.03839 5.25039 6.43779 5.76626 6.56676C6.64781 6.78715 7.32036 6.14108 7.68987 5.41398C8.08284 4.64071 8.4002 3.64523 8.23153 2.76815C8.06765 1.91593 7.03497 1.63388 6.3357 2.06676C5.31505 2.69859 3.78253 5.93102 5.03709 6.97648C5.65895 7.4947 6.66538 7.12658 7.25931 6.78898C8.43175 6.12254 9.69979 5.24712 10.0579 3.8862C10.7633 1.20575 5.87287 1.01414 4.30098 1.15704C1.47017 1.41438 0.684419 3.90682 1.10653 6.40704C1.59921 9.32521 6.04165 9.80077 8.19681 8.66398C10.9769 7.19756 9.19272 3.21956 7.39126 1.78898C6.54228 1.1148 5.66193 0.971785 4.60653 1.00426C3.38233 1.04193 2.8819 2.14752 2.79403 3.27509C2.7112 4.33816 2.92682 5.51266 3.61348 6.35843C4.09214 6.948 5.21918 7.58735 6.00931 7.46259C7.46907 7.2321 7.44296 4.28018 6.51626 3.52509C4.96017 2.25717 4.13942 6.39805 6.39126 5.49731" stroke="#2B3727" stroke-width="2" stroke-linecap="round" stroke-linejoin="round"/>
</svg>
